<svg xmlns="http://www.w3.org/2000/svg" viewBox="0 0 127.75 78"><g id="Cloud"><path d="M188.75,142.42c0,10.26-7.67,18.58-17.12,18.58H92.12C82.67,161,75,152.68,75,142.42s7.67-18.57,17.12-18.57l.92,0c3.46-10.1,12.43-17.27,22.93-17.27a22.86,22.86,0,0,1,7.28,1.19C127.73,98.41,136.76,92,147.16,92c14.86,0,26.91,13.07,26.91,29.19,0,1,0,1.9-.12,2.83C182.3,125.25,188.75,133,188.75,142.42Z" transform="translate(-61 -83)" style="fill:#fff"/></g><g id="Cloud_2" data-name="Cloud 2"><path d="M149,116.18A14.86,14.86,0,0,1,134.1,131H75.9a14.82,14.82,0,0,1-.61-29.63A20.61,20.61,0,0,1,113.8,93.6,11.36,11.36,0,0,1,129,102.26a15,15,0,0,1,5.13-.91A14.86,14.86,0,0,1,149,116.18Z" transform="translate(-61 -83)" style="fill:#fff;opacity:0.78"/></g></svg>