<svg id="Layer_1" data-name="Layer 1" xmlns="http://www.w3.org/2000/svg" viewBox="0 0 115.07 70"><g id="Cloud"><path d="M120.75,54.92c0,10.26-7.67,18.58-17.12,18.58H24.12C14.67,73.5,7,65.18,7,54.92s7.67-18.57,17.12-18.57H25C28.5,26.25,37.47,19.08,48,19.08a22.81,22.81,0,0,1,7.28,1.19C59.73,10.91,68.76,4.5,79.16,4.5c14.86,0,26.91,13.07,26.91,29.19a21.79,21.79,0,0,1-.12,2.83C114.3,37.75,120.75,45.5,120.75,54.92Z" transform="translate(-6.5 -4)" style="fill:none;stroke:#fff;stroke-miterlimit:10"/></g><line x1="20.35" y1="15.67" x2="114.57" y2="66.63" style="fill:none;stroke:#fff;stroke-linecap:round;stroke-miterlimit:10"/></svg>