<svg xmlns="http://www.w3.org/2000/svg" viewBox="0 0 157.75 114.58"><g id="Sun"><path d="M179.33,125.8a34.77,34.77,0,0,1-18.21-64.38A43,43,0,1,0,203,116.48,34.62,34.62,0,0,1,179.33,125.8Z" transform="translate(-45.25 -61.42)" style="fill:#f8f16c"/></g><g id="Cloud"><path d="M162.75,156.62c0,10.7-7.92,19.38-17.69,19.38H62.94c-9.77,0-17.69-8.68-17.69-19.38s7.92-19.39,17.69-19.39l1,0c3.57-10.54,12.83-18,23.69-18a23.2,23.2,0,0,1,7.51,1.25c4.63-9.79,14-16.48,24.7-16.48,15.35,0,27.8,13.64,27.8,30.46,0,1,0,2-.13,2.95C156.09,138.7,162.75,146.81,162.75,156.62Z" transform="translate(-45.25 -61.42)" style="fill:#fff"/></g></svg>