<svg xmlns="http://www.w3.org/2000/svg" viewBox="0 0 133.75 104"><g id="Sun"><circle cx="91.25" cy="42.5" r="42.5" style="fill:#f8f16c"/></g><g id="Cloud"><path d="M174.75,155.62c0,10.7-7.92,19.38-17.69,19.38H74.94c-9.77,0-17.69-8.68-17.69-19.38s7.92-19.39,17.69-19.39l1,0c3.57-10.54,12.83-18,23.69-18a23.2,23.2,0,0,1,7.51,1.25c4.63-9.79,14-16.48,24.7-16.48,15.35,0,27.8,13.64,27.8,30.46,0,1,0,2-.13,2.95C168.09,137.7,174.75,145.81,174.75,155.62Z" transform="translate(-57.25 -71)" style="fill:#fff"/></g></svg>