<svg id="Cloud" xmlns="http://www.w3.org/2000/svg" viewBox="0 0 113.75 99.97"><path d="M184.88,129.42c0,10.26-7.67,18.58-17.13,18.58H88.25c-9.46,0-17.12-8.32-17.12-18.58s7.66-18.57,17.12-18.57l.92,0c3.46-10.1,12.42-17.27,22.93-17.27a22.9,22.9,0,0,1,7.28,1.19C123.85,85.41,132.88,79,143.29,79c14.86,0,26.91,13.07,26.91,29.19,0,1,0,1.9-.12,2.83C178.43,112.25,184.88,120,184.88,129.42Z" transform="translate(-71.13 -79)" style="fill:#fff"/><rect x="127.01" y="153.82" width="4" height="25.81" rx="2" transform="translate(122.09 288.52) rotate(-160)" style="fill:#2ca4cc"/><rect x="112.01" y="153.82" width="4" height="25.81" rx="2" transform="translate(92.99 283.39) rotate(-160)" style="fill:#2ca4cc"/><rect x="97.01" y="153.82" width="4" height="25.81" rx="2" transform="translate(63.89 278.26) rotate(-160)" style="fill:#2ca4cc"/><rect x="142.01" y="153.82" width="4" height="25.81" rx="2" transform="translate(151.18 293.65) rotate(-160)" style="fill:#2ca4cc"/><rect x="157.01" y="153.82" width="4" height="25.81" rx="2" transform="translate(180.28 298.78) rotate(-160)" style="fill:#2ca4cc"/></svg>