<svg id="Cloud" xmlns="http://www.w3.org/2000/svg" viewBox="0 0 113.75 105.22"><path d="M184.88,129.42c0,10.26-7.67,18.58-17.13,18.58H88.25c-9.46,0-17.12-8.32-17.12-18.58s7.66-18.57,17.12-18.57l.92,0c3.46-10.1,12.42-17.27,22.93-17.27a22.9,22.9,0,0,1,7.28,1.19C123.85,85.41,132.88,79,143.29,79c14.86,0,26.91,13.07,26.91,29.19,0,1,0,1.9-.12,2.83C178.43,112.25,184.88,120,184.88,129.42Z" transform="translate(-71.13 -79)" style="fill:#fff"/><rect x="124.46" y="156.69" width="4.37" height="28.2" rx="2" transform="translate(116.11 295.59) rotate(-160)" style="fill:#2ca4cc"/><rect x="108.07" y="156.69" width="4.37" height="28.2" rx="2" transform="translate(84.32 289.99) rotate(-160)" style="fill:#2ca4cc"/><rect x="91.68" y="156.69" width="4.37" height="28.2" rx="2" transform="translate(52.53 284.38) rotate(-160)" style="fill:#2ca4cc"/><rect x="140.85" y="156.69" width="4.37" height="28.2" rx="2" transform="translate(147.9 301.2) rotate(-160)" style="fill:#2ca4cc"/><rect x="157.24" y="156.69" width="4.37" height="28.2" rx="2" transform="matrix(-0.94, -0.34, 0.34, -0.94, 179.7, 306.8)" style="fill:#2ca4cc"/></svg>