<svg id="Cloud" xmlns="http://www.w3.org/2000/svg" viewBox="0 0 113.75 105.06"><path d="M184.38,128.92c0,10.26-7.67,18.58-17.13,18.58H87.75c-9.46,0-17.12-8.32-17.12-18.58s7.66-18.57,17.12-18.57l.92,0c3.46-10.1,12.42-17.27,22.93-17.27a22.9,22.9,0,0,1,7.28,1.19c4.47-9.38,13.5-15.79,23.91-15.79,14.86,0,26.91,13.07,26.91,29.19,0,1,0,1.9-.12,2.83C177.93,111.75,184.38,119.53,184.38,128.92Z" transform="translate(-70.63 -78.5)" style="fill:#fff"/><rect x="126.51" y="153.32" width="4" height="25.81" rx="2" transform="matrix(-0.94, -0.34, 0.34, -0.94, 121.79, 287.88)" style="fill:#2ca4cc"/><rect x="111.51" y="153.32" width="4" height="25.81" rx="2" transform="translate(92.69 282.75) rotate(-160)" style="fill:#2ca4cc"/><rect x="96.51" y="153.32" width="4" height="25.81" rx="2" transform="translate(63.6 277.62) rotate(-160)" style="fill:#2ca4cc"/><rect x="141.51" y="153.32" width="4" height="25.81" rx="2" transform="translate(150.88 293.01) rotate(-160)" style="fill:#2ca4cc"/><rect x="156.51" y="153.32" width="4" height="25.81" rx="2" transform="translate(179.98 298.14) rotate(-160)" style="fill:#2ca4cc"/><rect x="91.37" y="179.53" width="3.54" height="3.54" transform="translate(48.03 305.01) rotate(-160)" style="fill:#2ca4cc"/><rect x="106.37" y="179.53" width="3.54" height="3.54" transform="translate(77.12 310.14) rotate(-160)" style="fill:#2ca4cc"/><rect x="121.37" y="179.53" width="3.54" height="3.54" transform="translate(106.22 315.28) rotate(-160)" style="fill:#2ca4cc"/><rect x="136.37" y="179.53" width="3.54" height="3.54" transform="translate(135.31 320.41) rotate(-160)" style="fill:#2ca4cc"/><rect x="151.37" y="179.53" width="3.54" height="3.54" transform="translate(164.41 325.54) rotate(-160)" style="fill:#2ca4cc"/></svg>