<svg id="Cloud" xmlns="http://www.w3.org/2000/svg" viewBox="0 0 113.75 95.38"><path d="M184.38,128.92c0,10.26-7.67,18.58-17.13,18.58H87.75c-9.46,0-17.12-8.32-17.12-18.58s7.66-18.57,17.12-18.57l.92,0c3.46-10.1,12.42-17.27,22.93-17.27a22.9,22.9,0,0,1,7.28,1.19c4.47-9.38,13.5-15.79,23.91-15.79,14.86,0,26.91,13.07,26.91,29.19,0,1,0,1.9-.12,2.83C177.93,111.75,184.38,119.53,184.38,128.92Z" transform="translate(-70.63 -78.5)" style="fill:#fff"/><polygon points="61.44 75.72 63.56 79.39 61.44 83.06 57.2 83.06 55.08 79.39 57.2 75.72 61.44 75.72" style="fill:#ceecf6"/><polygon points="54.25 88.04 56.37 91.71 54.25 95.39 50.01 95.39 47.89 91.71 50.01 88.04 54.25 88.04" style="fill:#ceecf6"/><polygon points="38.84 88.04 40.96 91.71 38.84 95.39 34.6 95.39 32.48 91.71 34.6 88.04 38.84 88.04" style="fill:#ceecf6"/><polygon points="76.85 75.72 78.97 79.39 76.85 83.06 72.61 83.06 70.49 79.39 72.61 75.72 76.85 75.72" style="fill:#ceecf6"/><polygon points="85.06 88.04 87.18 91.71 85.06 95.39 80.83 95.39 78.71 91.71 80.83 88.04 85.06 88.04" style="fill:#ceecf6"/><polygon points="69.66 88.04 71.78 91.71 69.66 95.39 65.42 95.39 63.3 91.71 65.42 88.04 69.66 88.04" style="fill:#ceecf6"/><polygon points="92.26 75.72 94.38 79.39 92.26 83.06 88.02 83.06 85.9 79.39 88.02 75.72 92.26 75.72" style="fill:#ceecf6"/><polygon points="46.03 75.72 48.15 79.39 46.03 83.06 41.79 83.06 39.67 79.39 41.79 75.72 46.03 75.72" style="fill:#ceecf6"/><polygon points="26.38 75.72 30.62 75.72 32.74 79.39 30.62 83.06 26.38 83.06 24.26 79.39 26.38 75.72" style="fill:#ceecf6"/></svg>