<svg xmlns="http://www.w3.org/2000/svg" viewBox="0 0 113.75 118"><g id="Cloud"><path d="M184.38,128.92c0,10.26-7.67,18.58-17.13,18.58H87.75c-9.46,0-17.12-8.32-17.12-18.58s7.66-18.57,17.12-18.57l.92,0c3.46-10.1,12.42-17.27,22.93-17.27a22.9,22.9,0,0,1,7.28,1.19c4.47-9.38,13.5-15.79,23.91-15.79,14.86,0,26.91,13.07,26.91,29.19,0,1,0,1.9-.12,2.83C177.93,111.75,184.38,119.53,184.38,128.92Z" transform="translate(-70.63 -78.5)" style="fill:#fff"/><rect x="96.51" y="153.32" width="4" height="25.81" rx="2" transform="translate(63.6 277.62) rotate(-160)" style="fill:#2ca4cc"/><rect x="113.51" y="154.32" width="4" height="25.81" rx="2" transform="translate(96.23 285.38) rotate(-160)" style="fill:#2ca4cc"/><rect x="141.51" y="153.32" width="4" height="25.81" rx="2" transform="translate(150.88 293.01) rotate(-160)" style="fill:#2ca4cc"/><rect x="156.51" y="153.32" width="4" height="25.81" rx="2" transform="translate(179.98 298.14) rotate(-160)" style="fill:#2ca4cc"/></g><g id="lightning"><polyline points="60.97 75.05 52.75 95 62 95 53.78 114.95" style="fill:none;stroke:#ff0;stroke-miterlimit:10;stroke-width:5px"/><path d="M132.65,151.1h0a2.18,2.18,0,0,0-2.63,1l-.71,1.63a1.68,1.68,0,0,0,1.23,2.22h0a2.18,2.18,0,0,0,2.63-1l.71-1.63A1.69,1.69,0,0,0,132.65,151.1Z" transform="translate(-70.63 -78.5)" style="fill:#ff0;stroke:#ff0;stroke-miterlimit:10"/><path d="M125.46,191h0a2.18,2.18,0,0,0-2.63,1l-.71,1.63a1.69,1.69,0,0,0,1.23,2.23h0a2.18,2.18,0,0,0,2.63-1l.71-1.63A1.68,1.68,0,0,0,125.46,191Z" transform="translate(-70.63 -78.5)" style="fill:#ff0;stroke:#ff0;stroke-miterlimit:10"/></g></svg>