<?xml version="1.0" encoding="utf-8"?>
<!-- Generator: Adobe Adobe Illustrator 24.2.0, SVG Export Plug-In . SVG Version: 6.00 Build 0)  -->
<svg version="1.1" xmlns="http://www.w3.org/2000/svg" xmlns:xlink="http://www.w3.org/1999/xlink" x="0px" y="0px"
	 viewBox="0 0 14400 14400" style="enable-background:new 0 0 14400 14400;" xml:space="preserve">
<style type="text/css">
	.st0{fill:#6B56FD;}
	.st1{fill:#F8F16C;}
	.st2{fill:#FFFFFF;}
	.st3{fill:#55A1FF;}
</style>
<g id="Layer_4">
	<rect x="-982.5" y="-982.5" class="st0" width="16416" height="16416"/>
</g>
<g id="Layer_1">
	<g id="sun">
		<circle class="st1" cx="8579.25" cy="5719.44" r="1639.1"/>
	</g>
	<g>
		<path class="st2" d="M10213.52,7839.41c0,486.01-394.04,880.05-880.05,880.05c-321.88,0-4228,0-4576.28,0
			c-486.01,0-880.05-394.04-880.05-880.05c0-467.31,364.34-849.58,824.39-878.29c-3.19-40.48-4.84-81.4-4.84-122.77
			c0-856.62,694.47-1551.09,1551.09-1551.09c571.04,0,1070.15,308.68,1339.22,768.29c153.46-69.52,323.97-108.25,503.39-108.25
			c603.39,0,1104.58,437.72,1203.36,1012.94c13.2-0.55,26.4-0.88,39.71-0.88C9819.48,6959.36,10213.52,7353.4,10213.52,7839.41z"/>
	</g>
</g>
<g id="rain">
	<g>
		
			<rect x="6059.78" y="9579.35" transform="matrix(0.5 -0.866 0.866 0.5 -4951.7246 10648.6416)" class="st3" width="1372.69" height="66.57"/>
		<path class="st3" d="M7125.77,8988.49L7125.77,8988.49L7125.77,8988.49 M7044.38,8935.5c-2.08,0-4.1,1.08-5.21,3l-730.34,1265
			c-1.65,2.86-0.66,6.55,2.2,8.2l133.86,77.29c0.94,0.54,1.97,0.8,2.98,0.8c2.08,0,4.1-1.08,5.21-3l730.34-1264.99
			c1.65-2.86,0.66-6.55-2.2-8.2l-133.86-77.29C7046.42,8935.76,7045.39,8935.5,7044.38,8935.5L7044.38,8935.5z"/>
	</g>
	<g>
		
			<rect x="7156.36" y="9579.35" transform="matrix(0.5 -0.866 0.866 0.5 -4403.4321 11598.3105)" class="st3" width="1372.69" height="66.57"/>
		<path class="st3" d="M8222.35,8988.49L8222.35,8988.49L8222.35,8988.49 M8140.96,8935.5c-2.08,0-4.1,1.08-5.21,3l-730.34,1265
			c-1.65,2.86-0.66,6.55,2.2,8.2l133.86,77.29c0.94,0.54,1.97,0.8,2.98,0.8c2.08,0,4.1-1.08,5.21-3L8280,9021.78
			c1.65-2.86,0.66-6.55-2.2-8.2l-133.86-77.29C8143,8935.76,8141.98,8935.5,8140.96,8935.5L8140.96,8935.5z"/>
	</g>
	<g>
		
			<rect x="4977.07" y="9579.35" transform="matrix(0.5 -0.866 0.866 0.5 -5493.0767 9710.9932)" class="st3" width="1372.69" height="66.57"/>
		<path class="st3" d="M6043.07,8988.49L6043.07,8988.49L6043.07,8988.49 M5961.68,8935.5c-2.08,0-4.1,1.08-5.21,3l-730.34,1265
			c-1.65,2.86-0.66,6.55,2.2,8.2l133.86,77.29c0.94,0.54,1.97,0.8,2.98,0.8c2.08,0,4.1-1.08,5.21-3l730.34-1264.99
			c1.65-2.86,0.66-6.55-2.2-8.2l-133.86-77.29C5963.72,8935.76,5962.69,8935.5,5961.68,8935.5L5961.68,8935.5z"/>
	</g>
	<g>
		
			<rect x="8266.82" y="9579.35" transform="matrix(0.5 -0.866 0.866 0.5 -3848.2014 12559.9912)" class="st3" width="1372.69" height="66.57"/>
		<path class="st3" d="M9332.82,8988.49L9332.82,8988.49L9332.82,8988.49 M9251.42,8935.5c-2.08,0-4.1,1.08-5.21,3l-730.34,1265
			c-1.65,2.86-0.66,6.55,2.2,8.2l133.86,77.29c0.94,0.54,1.97,0.8,2.98,0.8c2.08,0,4.11-1.08,5.21-3l730.34-1264.99
			c1.65-2.86,0.66-6.55-2.2-8.2l-133.86-77.29C9253.47,8935.76,9252.44,8935.5,9251.42,8935.5L9251.42,8935.5z"/>
	</g>
	<g>
		
			<rect x="3908.25" y="9579.35" transform="matrix(0.5 -0.866 0.866 0.5 -6027.4878 8785.3662)" class="st3" width="1372.69" height="66.57"/>
		<path class="st3" d="M4974.25,8988.49L4974.25,8988.49L4974.25,8988.49 M4892.86,8935.5c-2.08,0-4.1,1.08-5.21,3l-730.34,1265
			c-1.65,2.86-0.66,6.55,2.2,8.2l133.86,77.29c0.94,0.54,1.97,0.8,2.98,0.8c2.08,0,4.11-1.08,5.21-3l730.34-1264.99
			c1.65-2.86,0.66-6.55-2.2-8.2l-133.86-77.29C4894.9,8935.76,4893.87,8935.5,4892.86,8935.5L4892.86,8935.5z"/>
	</g>
</g>
</svg>
