<svg id="Layer_1" data-name="Layer 1" xmlns="http://www.w3.org/2000/svg" viewBox="0 0 20.24 20.26"><path d="M15,24.76a.32.32,0,0,1-.24-.09.38.38,0,0,1-.11-.28v-2a.3.3,0,0,1,.09-.24.37.37,0,0,1,.26-.1.34.34,0,0,1,.26.09.37.37,0,0,1,.09.25v2a.38.38,0,0,1-.1.27A.35.35,0,0,1,15,24.76Zm6.92-2.88a.44.44,0,0,1-.29-.13l-1.38-1.37a.51.51,0,0,1-.08-.3.29.29,0,0,1,.07-.2.3.3,0,0,1,.22-.09.37.37,0,0,1,.26.09l1.45,1.43a.35.35,0,0,1,.09.25.34.34,0,0,1-.09.24A.53.53,0,0,1,21.91,21.88Zm-13.83,0a.58.58,0,0,1-.3-.13.38.38,0,0,1,0-.2.48.48,0,0,1,.11-.29l1.44-1.39s.08-.09.24-.09a.34.34,0,0,1,.26.1.22.22,0,0,1,.08.2.49.49,0,0,1-.11.31l-1.4,1.4A.62.62,0,0,1,8.08,21.88ZM15,19.34a4.61,4.61,0,0,1-2.36-.63,4.66,4.66,0,0,1-2.34-4.09,4.6,4.6,0,0,1,.63-2.35,4.71,4.71,0,0,1,1.73-1.73A4.6,4.6,0,0,1,15,9.91a4.4,4.4,0,0,1,1.82.38,4.77,4.77,0,0,1,1.5,1,4.56,4.56,0,0,1,1,1.5A4.72,4.72,0,0,1,19.06,17a4.73,4.73,0,0,1-1.72,1.72A4.61,4.61,0,0,1,15,19.34Zm0-8.71a4,4,0,0,0-4,4,3.9,3.9,0,0,0,1.18,2.85,4,4,0,0,0,5.69,0,4,4,0,0,0,0-5.67A3.89,3.89,0,0,0,15,10.63ZM5.23,15a.35.35,0,0,1-.25-.1.34.34,0,0,1-.11-.26.38.38,0,0,1,.1-.27.37.37,0,0,1,.25-.09h2a.27.27,0,0,1,.22.09.4.4,0,0,1,.09.27.42.42,0,0,1-.09.28.26.26,0,0,1-.21.08Zm17.5,0a.22.22,0,0,1-.2-.08.36.36,0,0,1-.11-.27.41.41,0,0,1,.11-.29.3.3,0,0,1,.2-.07h2a.32.32,0,0,1,.25.11.34.34,0,0,1,.11.25.33.33,0,0,1-.11.25.35.35,0,0,1-.25.1ZM20.45,9.5a.24.24,0,0,1-.2-.08.37.37,0,0,1-.09-.26.32.32,0,0,1,.07-.23l1.44-1.48a.32.32,0,0,1,.23-.09.3.3,0,0,1,.24.09.36.36,0,0,1,.11.26.36.36,0,0,1-.09.27L20.7,9.4A.34.34,0,0,1,20.45,9.5Zm-10.93,0a.25.25,0,0,1-.22-.08L7.82,8a.33.33,0,0,1-.09-.25.46.46,0,0,1,.11-.29.51.51,0,0,1,.26-.07.36.36,0,0,1,.25.1L9.76,8.91a.27.27,0,0,1,.1.24.31.31,0,0,1-.34.34ZM15,7.21a.35.35,0,0,1-.26-.1.26.26,0,0,1-.1-.21v-2a.35.35,0,0,1,.1-.25A.34.34,0,0,1,15,4.5a.33.33,0,0,1,.25.1.35.35,0,0,1,.1.25V6.9a.31.31,0,0,1-.09.22A.37.37,0,0,1,15,7.21Z" transform="translate(-4.87 -4.5)"/></svg>