<svg id="Layer_1" data-name="Layer 1" xmlns="http://www.w3.org/2000/svg" viewBox="0 0 13.13 13.2"><path d="M15,21.08a6.67,6.67,0,0,1-4.69-1.92,6.8,6.8,0,0,1-1.39-2.11,7,7,0,0,1-.5-2.57,6.51,6.51,0,0,1,.52-2.56,6.45,6.45,0,0,1,3.52-3.51A6.4,6.4,0,0,1,15,7.88h.88l0,.69a5.12,5.12,0,0,0,1.51,3.56A5.1,5.1,0,0,0,21,13.7l.58.05v.73a6.44,6.44,0,0,1-.86,3.31A6.51,6.51,0,0,1,15,21.08Zm-.2-12.56a5.68,5.68,0,0,0-2.86,1,6.15,6.15,0,0,0-2,2.21,5.88,5.88,0,0,0-.22,5.15,5.8,5.8,0,0,0,3.15,3,5.34,5.34,0,0,0,2.13.44A5.52,5.52,0,0,0,17,20a6.64,6.64,0,0,0,1.78-1,5.77,5.77,0,0,0,1.43-1.71,6.37,6.37,0,0,0,.78-2.27l.06-.46-.46-.1a6.68,6.68,0,0,1-3.65-1.95A5.79,5.79,0,0,1,15.32,9l-.05-.48Z" transform="translate(-8.41 -7.88)"/></svg>