<svg id="Layer_1" data-name="Layer 1" xmlns="http://www.w3.org/2000/svg" viewBox="0 0 21.21 13.55"><path d="M8.16,21.35a3.52,3.52,0,0,1-1.45-.3,4,4,0,0,1-1.22-.78,4,4,0,0,1-.8-1.21,3.57,3.57,0,0,1-.3-1.46,3.69,3.69,0,0,1,.82-2.34A3.61,3.61,0,0,1,7.31,14l.31-.07.07-.31A4.42,4.42,0,0,1,9.29,11a4.48,4.48,0,0,1,2.91-1,4.48,4.48,0,0,1,2.85,1,4.35,4.35,0,0,1,1.62,2.53l.09.38h.67a3.74,3.74,0,0,1,3.76,3.74,3.76,3.76,0,0,1-3.76,3.76Zm-.38-7a3.12,3.12,0,0,0-2.1,1,3.31,3.31,0,0,0-.84,2.23,3.17,3.17,0,0,0,1,2.31,3.21,3.21,0,0,0,2.34,1h9.28a3.21,3.21,0,0,0,2.34-1,3.22,3.22,0,0,0,0-4.63,3.23,3.23,0,0,0-2.34-1H16.34l0-.21a4.14,4.14,0,0,0-4.13-3.71,4,4,0,0,0-2.79,1.07A4,4,0,0,0,8,14.13l0,.16Zm15.08,3a2.8,2.8,0,0,0,1.55-.87,2.76,2.76,0,0,0,.75-1.91,2.9,2.9,0,0,0-2.88-2.86h-1l0-.21a3.44,3.44,0,0,0-1.14-2.3,3.59,3.59,0,0,0-2.44-.94,3.48,3.48,0,0,0-2.29.84l-.47-.25a3.83,3.83,0,0,1,2.72-1,4.16,4.16,0,0,1,4,3.07l.09.37h.54a3.31,3.31,0,0,1,3.32,3.32,3.31,3.31,0,0,1-2.74,3.25Z" transform="translate(-4.39 -7.8)"/></svg>