<svg id="Layer_1" data-name="Layer 1" xmlns="http://www.w3.org/2000/svg" viewBox="0 0 23.75 16.54"><path d="M7.84,24.46a.38.38,0,0,1-.36-.35.3.3,0,0,1,.1-.23.33.33,0,0,1,.26-.09H26.52a.37.37,0,0,1,.26.09.31.31,0,0,1,.09.22.35.35,0,0,1-.1.26.35.35,0,0,1-.25.1ZM3.5,21.36a.44.44,0,0,1-.3-.1.26.26,0,0,1-.08-.21.3.3,0,0,1,.09-.24.38.38,0,0,1,.29-.11H22.17a.37.37,0,0,1,.26.09.33.33,0,0,1,.09.26.22.22,0,0,1-.08.2.35.35,0,0,1-.27.11Zm2.59-3.1a.3.3,0,0,1-.24-.09.36.36,0,0,1-.11-.26.31.31,0,0,1,.1-.24.35.35,0,0,1,.25-.09H24.76a.32.32,0,0,1,.23.09.31.31,0,0,1,.08.24.37.37,0,0,1-.09.26.27.27,0,0,1-.22.09Zm18.08-3.09a3.71,3.71,0,0,0-1.29-1.45,3.64,3.64,0,0,0-2-.6H19.51l-.05-.31a4.45,4.45,0,0,0-1.53-3,4.77,4.77,0,0,0-6.34,0,4.53,4.53,0,0,0-1.54,3l0,.27-.32,0a3.65,3.65,0,0,0-1.78.65,3.57,3.57,0,0,0-1.16,1.34H6a4.5,4.5,0,0,1,1-1.48,4.34,4.34,0,0,1,2-1.08l.31-.07.07-.31a5.37,5.37,0,0,1,1.91-3.08,5.28,5.28,0,0,1,3.42-1.21,5.18,5.18,0,0,1,3.34,1.16,5.32,5.32,0,0,1,1.92,3l.1.38h.71a4.35,4.35,0,0,1,4.09,2.71Z" transform="translate(-3.12 -7.92)"/></svg>