<svg id="Layer_1" data-name="Layer 1" xmlns="http://www.w3.org/2000/svg" viewBox="0 0 10.18 13.17"><path d="M15,19.93a4.53,4.53,0,0,1-2.34-.64,4.83,4.83,0,0,1-1.72-1.73,4.43,4.43,0,0,1-.63-2.31,5.1,5.1,0,0,1,.59-2.15,15,15,0,0,1,1.45-2.48,14.72,14.72,0,0,1,1.73-2L15,7.67c.83.84,1.28,1.32,1.52,1.59.56.64,1.08,1.26,1.53,1.86a11.92,11.92,0,0,1,1.2,2.18,5.2,5.2,0,0,1,.48,1.95,4.51,4.51,0,0,1-.64,2.32,4.86,4.86,0,0,1-1.74,1.72A4.7,4.7,0,0,1,15,19.93Z" transform="translate(-9.94 -7.14)" style="fill:none;stroke:#000;stroke-miterlimit:10;stroke-width:0.75px"/></svg>