<svg id="Layer_1" data-name="Layer 1" xmlns="http://www.w3.org/2000/svg" viewBox="0 0 20.65 15.49"><path d="M9.07,21.35a4.34,4.34,0,0,1-2.23-.6,4.47,4.47,0,0,1-1.61-1.62,4.37,4.37,0,0,1-.59-2.23,4.31,4.31,0,0,1,1-2.77,4.16,4.16,0,0,1,2.46-1.54l.31-.07.07-.31A5.33,5.33,0,0,1,9.71,9.74,5.51,5.51,0,0,1,13.8,7.93,5.44,5.44,0,0,1,16,8.37l.41.17.22-.37a4.77,4.77,0,0,1,.89-1.11,4.36,4.36,0,0,1,1.05-.7A5.67,5.67,0,0,1,19.61,6a4.15,4.15,0,0,1,1-.12A5,5,0,0,1,21.72,6l.53.17-.08.31a4.73,4.73,0,0,0-.11,1,3.87,3.87,0,0,0,.17,1.1,4.28,4.28,0,0,0,.5,1.06,3.44,3.44,0,0,0,.92,1,4.4,4.4,0,0,0,1.3.65l.34.12-.1.39a4.57,4.57,0,0,1-1.35,2.33l-.31.27.21.35a4.4,4.4,0,0,1,.58,2,1.79,1.79,0,0,1,0,.21,4.34,4.34,0,0,1-.6,2.23,4.49,4.49,0,0,1-1.62,1.62,4.39,4.39,0,0,1-2.23.6Zm-.32-8.16A3.85,3.85,0,0,0,6.3,14.41a3.59,3.59,0,0,0-1,2.49,3.68,3.68,0,0,0,1.1,2.66,3.58,3.58,0,0,0,2.62,1.13H19.88a3.57,3.57,0,0,0,2.64-1.12,3.75,3.75,0,0,0,1.09-2.67,3.56,3.56,0,0,0-1.11-2.62,3.66,3.66,0,0,0-2.63-1.09H18.53l0-.32A4.55,4.55,0,0,0,17.08,10a4.74,4.74,0,0,0-2.94-1.34H14a1,1,0,0,0-.22,0,4.68,4.68,0,0,0-1,.12V8.69l-.68.24a4.91,4.91,0,0,0-3.06,4l0,.3ZM20.57,6.58a3.87,3.87,0,0,0-1.89.5,4,4,0,0,0-1.51,1.45L17,8.89l.32.28a5.12,5.12,0,0,1,1.81,2.9l.08.4h.73a4,4,0,0,1,2.83,1l.35.31.33-.32a3.85,3.85,0,0,0,.88-1.22l.2-.45L24,11.63a4.5,4.5,0,0,1-1.94-1.78,4.85,4.85,0,0,1-.72-2.52V6.68L21,6.6l-.34,0Z" transform="translate(-4.64 -5.86)"/></svg>