<svg id="Layer_1" data-name="Layer 1" xmlns="http://www.w3.org/2000/svg" viewBox="0 0 25.88 19.94"><path d="M6.49,21.35a4.41,4.41,0,0,1-3.84-2.21,4.44,4.44,0,0,1-.59-2.24,4.33,4.33,0,0,1,1-2.76,4.23,4.23,0,0,1,2.46-1.55l.31-.07.07-.31a5.31,5.31,0,0,1,1.9-3.07,5.25,5.25,0,0,1,3.42-1.2,4.91,4.91,0,0,1,2.45.59l.34.2.27-.28a4.68,4.68,0,0,1,3.52-1.59,4.55,4.55,0,0,1,1.84.37,4.7,4.7,0,0,1,1.52,1A4.75,4.75,0,0,1,22.5,11.6a4.5,4.5,0,0,1-1,3l-.19.23.12.28a4.78,4.78,0,0,1,.38,1.81,4.44,4.44,0,0,1-4.46,4.45Zm-.31-8.18a3.85,3.85,0,0,0-2.44,1.22,3.62,3.62,0,0,0-1,2.51,3.75,3.75,0,0,0,1.09,2.67,3.59,3.59,0,0,0,2.63,1.12H17.33A3.59,3.59,0,0,0,20,19.58a3.7,3.7,0,0,0,1.09-2.67,3.79,3.79,0,0,0-3.74-3.73H16l0-.31a4.47,4.47,0,0,0-1.54-3,4.62,4.62,0,0,0-3.2-1.23A4.55,4.55,0,0,0,8,9.84a4.82,4.82,0,0,0-1.57,3l0,.3ZM17.76,7.56A3.88,3.88,0,0,0,15,8.7l-.36.36.36.36a5.52,5.52,0,0,1,1.55,2.69l.09.39h.72a4.24,4.24,0,0,1,3.14,1.3l.46.45.32-.56a4.15,4.15,0,0,0,.58-2.09,4,4,0,0,0-4.06-4Zm7,11.35a.24.24,0,0,1-.21-.08l-.67-.65a.35.35,0,0,1-.1-.27.31.31,0,0,1,.1-.24.35.35,0,0,1,.26-.1.31.31,0,0,1,.22.09l.65.65a.33.33,0,0,1,.09.23.39.39,0,0,1-.1.28A.3.3,0,0,1,24.73,18.91Zm.86-7a.37.37,0,0,1-.26-.09.3.3,0,0,1-.11-.23.31.31,0,0,1,.1-.24.36.36,0,0,1,.27-.11h2a.29.29,0,0,1,.22.09.37.37,0,0,1,.09.26c0,.16-.05.2-.07.22a.31.31,0,0,1-.24.1ZM23.3,6.43A.58.58,0,0,1,23,6.29h0a1,1,0,0,1,0-.22.45.45,0,0,1,.11-.31L24.5,4.38a.26.26,0,0,1,.23-.1.34.34,0,0,1,.24.09.35.35,0,0,1,.09.25.42.42,0,0,1-.11.31L23.54,6.34A.49.49,0,0,1,23.3,6.43ZM11.46,5.65s-.09,0-.29-.15l-.61-.6a.37.37,0,0,1-.09-.27.33.33,0,0,1,.09-.24.38.38,0,0,1,.28-.11.4.4,0,0,1,.28.11l.55.62a.34.34,0,0,1,.13.26.4.4,0,0,1-.1.28c-.1.1-.16.1-.19.1Zm6.3-1.52a.31.31,0,0,1-.23-.07.39.39,0,0,1-.09-.28v-2c0-.16,0-.21.07-.22a.32.32,0,0,1,.25-.1.36.36,0,0,1,.26.08.34.34,0,0,1,.09.24V3.78c0,.17,0,.23-.08.27A.4.4,0,0,1,17.76,4.13Z" transform="translate(-2.06 -1.41)"/></svg>