<svg id="Layer_1" data-name="Layer 1" xmlns="http://www.w3.org/2000/svg" viewBox="0 0 13.65 16.56"><path d="M13.45,22.94V19.82l-.36-.11a6.72,6.72,0,0,1-3.53-2.43,6.76,6.76,0,0,1-.83-6.73,6.58,6.58,0,0,1,1.46-2.17,6.94,6.94,0,0,1,2.19-1.46A6.53,6.53,0,0,1,15,6.38a6.61,6.61,0,0,1,2.65.54,6.64,6.64,0,0,1,3.63,3.63,6.54,6.54,0,0,1,.54,2.65,6.5,6.5,0,0,1-1.34,4A6.76,6.76,0,0,1,17,19.67l-.35.11v3.16ZM15,7a6,6,0,0,0-2.4.49,6.22,6.22,0,0,0-3.31,3.3,6,6,0,0,0,1.33,6.77A6,6,0,0,0,15,19.37a6.06,6.06,0,0,0,3.11-.83,6.25,6.25,0,0,0,2.27-2.24,6.19,6.19,0,0,0-3-8.82A6,6,0,0,0,15,7Zm0,9a1.06,1.06,0,0,1-.74-1.81.94.94,0,0,1,.7-.32h.28l2-3.29L15.8,14.13l.16.23a.94.94,0,0,1,.17.59,1,1,0,0,1-.31.75A1,1,0,0,1,15.05,16Z" transform="translate(-8.19 -6.38)"/><rect x="1.69" y="6.58" width="2.17" height="0.49"/><rect x="9.56" y="6.58" width="2.17" height="0.49"/><rect x="14.07" y="8.96" width="2.17" height="0.49" transform="translate(-2.24 17.98) rotate(-90)"/><rect x="10.91" y="10.28" width="2.17" height="0.49" transform="translate(4.84 20.07) rotate(-135)"/></svg>