<svg id="Layer_1" data-name="Layer 1" xmlns="http://www.w3.org/2000/svg" viewBox="0 0 19.73 19.06"><path d="M13.44,27h0a.45.45,0,0,1-.31-.22h0a.38.38,0,0,1,0-.23l2.44-8.77c0-.1.05-.12.08-.14a.41.41,0,0,1,.23-.08l.16,0a.27.27,0,0,1,.16.14.32.32,0,0,1,0,.27l-2.43,8.78a.25.25,0,0,1-.11.16A.31.31,0,0,1,13.44,27Zm-2.8-3.07.13,0a.37.37,0,0,1-.21-.13.41.41,0,0,1-.07-.22l1.65-5.83a.25.25,0,0,1,.12-.16.31.31,0,0,1,.18-.07l.13,0a.27.27,0,0,1,.22.14.29.29,0,0,1,0,.27L11.19,23.7c-.06.23-.15.28-.31.28Zm6.8,0a.28.28,0,0,1-.15-.11.41.41,0,0,1-.05-.19s0-.05,0-.11l1.63-5.75a.33.33,0,0,1,.11-.18.37.37,0,0,1,.17,0l.15,0a.21.21,0,0,1,.15.1.3.3,0,0,1,.07.19s0,.14,0,.16l-1.62,5.69c0,.14-.07.18-.1.2a.36.36,0,0,1-.17.07ZM9.08,21.34A4.3,4.3,0,0,1,6.37,20a4.21,4.21,0,0,1-1.23-3.08A4.43,4.43,0,0,1,8.57,12.6l.3-.08.07-.3a5.44,5.44,0,0,1,1.93-3.08,5.27,5.27,0,0,1,3.44-1.2,5.24,5.24,0,0,1,3.37,1.17,5.34,5.34,0,0,1,1.92,3l.1.38h.71a4.43,4.43,0,0,1,2.23.59,4.34,4.34,0,0,1,2.23,3.81,4.43,4.43,0,0,1-.57,2.2,4.35,4.35,0,0,1-1.55,1.61,4.24,4.24,0,0,1-1.84.62v-.68a3.63,3.63,0,0,0,2.25-1.16,3.72,3.72,0,0,0,1-2.6,3.58,3.58,0,0,0-1.13-2.62,3.68,3.68,0,0,0-2.66-1.1H19.07l0-.32a4.56,4.56,0,0,0-1.56-3,4.77,4.77,0,0,0-6.37,0,4.56,4.56,0,0,0-1.52,3l0,.28-.29,0a3.91,3.91,0,0,0-2.44,1.23,3.56,3.56,0,0,0-1,2.5,3.68,3.68,0,0,0,1,2.6,3.52,3.52,0,0,0,2.21,1.15Z" transform="translate(-5.14 -7.94)"/></svg>