<svg id="Layer_1" data-name="Layer 1" xmlns="http://www.w3.org/2000/svg" viewBox="0 0 19.73 19.25"><path d="M13.41,27.19l-.08,0a.36.36,0,0,1-.23-.2l0-.1a.4.4,0,0,1,.07-.21.28.28,0,0,1,.16-.14l.13,0,.1,0a.33.33,0,0,1,.19.21.25.25,0,0,1,0,.24.27.27,0,0,1-.18.19Zm.77-2.66-.11,0c-.26-.08-.26-.17-.26-.25s0-.12,0-.23l1.7-6.28a.19.19,0,0,1,.09-.15.35.35,0,0,1,.21-.07H16a.27.27,0,0,1,.17.13.45.45,0,0,1,0,.3L14.5,24.25c0,.06-.06.21-.12.23A.37.37,0,0,1,14.18,24.53Zm-3.3-.39-.11,0a.41.41,0,0,1-.22-.21.35.35,0,0,1,0-.14c.09-.2.16-.25.24-.28h0l.19,0c.15.06.17.13.18.16a.27.27,0,0,1,0,.25.34.34,0,0,1-.19.2Zm6.72,0-.17,0a.39.39,0,0,1-.15-.16l0-.13,0,0,0-.08a.32.32,0,0,1,.2-.21h.1a.29.29,0,0,1,.14,0,.35.35,0,0,1,.17.19.41.41,0,0,1,0,.29.24.24,0,0,1-.16.12Zm-6-2.49a.1.1,0,0,1-.06,0c-.16-.07-.26-.11-.29-.17a.27.27,0,0,1-.07-.17,1.54,1.54,0,0,1,0-.16l.88-3.38a.26.26,0,0,1,.12-.15.3.3,0,0,1,.19-.07l.12,0a.25.25,0,0,1,.22.13.35.35,0,0,1,0,.29l-.89,3.37c-.06.22-.14.26-.17.27Zm6.53-.12A.6.6,0,0,1,18,21.4a.43.43,0,0,1-.07-.17l0-.14.89-3.32c0-.12.09-.15.11-.16a.3.3,0,0,1,.19-.07l.15,0a.3.3,0,0,1,.15.1.36.36,0,0,1,.06.18l0,.2-.88,3.27c0,.1-.07.17-.13.19a.48.48,0,0,1-.14.06Zm2.74-.86a3.63,3.63,0,0,0,2.25-1.16,3.72,3.72,0,0,0,1-2.6,3.6,3.6,0,0,0-1.13-2.63,3.68,3.68,0,0,0-2.66-1.1H19.07l0-.32a4.67,4.67,0,0,0-1.56-3,4.77,4.77,0,0,0-6.37,0,4.57,4.57,0,0,0-1.53,3l0,.28-.29,0A3.81,3.81,0,0,0,6.82,14.4a3.74,3.74,0,0,0,.07,5.1A3.52,3.52,0,0,0,9.1,20.65v.68A4.3,4.3,0,0,1,6.39,20,4.23,4.23,0,0,1,5.14,16.9a4.33,4.33,0,0,1,1-2.76,4.2,4.2,0,0,1,2.45-1.55l.31-.07.07-.31A5.47,5.47,0,0,1,14.3,7.94a5.27,5.27,0,0,1,3.37,1.17,5.36,5.36,0,0,1,1.92,3l.1.38h.71a4.43,4.43,0,0,1,2.24.6,4.34,4.34,0,0,1,2.23,3.81,4.43,4.43,0,0,1-.57,2.2,4.35,4.35,0,0,1-1.55,1.61,4.24,4.24,0,0,1-1.84.62Z" transform="translate(-5.14 -7.94)"/></svg>