<svg id="Layer_1" data-name="Layer 1" xmlns="http://www.w3.org/2000/svg" viewBox="0 0 19.71 19"><path d="M15,26.94a.32.32,0,0,1-.23-.09.34.34,0,0,1-.09-.24.38.38,0,0,1,.11-.27.3.3,0,0,1,.21-.08.35.35,0,0,1,.26.1.35.35,0,0,1,.1.25.3.3,0,0,1-.09.23A.38.38,0,0,1,15,26.94Zm3.25-2a.37.37,0,0,1-.25-.09.32.32,0,0,1-.1-.22.35.35,0,0,1,.11-.26.38.38,0,0,1,.24-.07.35.35,0,0,1,.25.09s.07.07.07.23a.35.35,0,0,1-.09.25A.31.31,0,0,1,18.26,25Zm-6.44,0a.37.37,0,0,1-.25-.09.34.34,0,0,1-.07-.22.37.37,0,0,1,.09-.25.34.34,0,0,1,.23-.08.33.33,0,0,1,.25.1.29.29,0,0,1,.08.22.34.34,0,0,1-.09.24A.31.31,0,0,1,11.82,25ZM15,23.3a.31.31,0,0,1-.22-.09.37.37,0,0,1-.1-.26.43.43,0,0,1,.11-.28.3.3,0,0,1,.21-.08.32.32,0,0,1,.25.11.33.33,0,0,1,.11.25.35.35,0,0,1-.1.25A.35.35,0,0,1,15,23.3Zm-3.18-1.93a.32.32,0,0,1-.23-.09.37.37,0,0,1-.1-.26.33.33,0,0,1,.09-.23.37.37,0,0,1,.48,0,.33.33,0,0,1,.09.23.37.37,0,0,1-.09.25A.29.29,0,0,1,11.83,21.37Zm6.43,0a.33.33,0,0,1-.24-.09.34.34,0,0,1-.11-.25.33.33,0,0,1,.1-.23.35.35,0,0,1,.25-.1.34.34,0,0,1,.24.09.33.33,0,0,1,.09.23.37.37,0,0,1-.09.25A.28.28,0,0,1,18.26,21.36ZM9,21.36A4.23,4.23,0,0,1,6.33,20,4.44,4.44,0,0,1,5.14,17a4.31,4.31,0,0,1,1-2.77,4.43,4.43,0,0,1,2.47-1.59l.3-.07.07-.3a5.47,5.47,0,0,1,5.36-4.28,5.24,5.24,0,0,1,3.37,1.17,5.34,5.34,0,0,1,1.92,3l.1.38h.71A4.44,4.44,0,0,1,24.85,17,4.25,4.25,0,0,1,23.6,20a4.14,4.14,0,0,1-2.72,1.33v-.68A3.74,3.74,0,0,0,23,14.29a3.67,3.67,0,0,0-2.67-1.12H19l0-.32A4.78,4.78,0,0,0,14.26,8.6a4.75,4.75,0,0,0-4.73,4.31l0,.27-.33,0a3.59,3.59,0,0,0-2.4,1.2,3.72,3.72,0,0,0,.06,5.1A3.57,3.57,0,0,0,9,20.67Zm6-1.69a.32.32,0,0,1-.23-.09.37.37,0,0,1-.09-.25.35.35,0,0,1,.1-.25A.33.33,0,0,1,15,19a.35.35,0,0,1,.26.1.33.33,0,0,1,.1.25.32.32,0,0,1-.09.23A.38.38,0,0,1,15,19.67Z" transform="translate(-5.14 -7.94)"/></svg>