<svg id="Layer_1" data-name="Layer 1" xmlns="http://www.w3.org/2000/svg" viewBox="0 0 23.5 17.77"><path d="M9.05,21.37a.45.45,0,0,1-.34-.14.49.49,0,0,1-.13-.35.41.41,0,0,1,.12-.31.49.49,0,0,1,.35-.13h2.83L15,17.54l3.13,2.9h3a.47.47,0,0,1,.34.13.43.43,0,0,1,.14.32.48.48,0,0,1-.48.48H17.68L15,18.84l-2.67,2.54Zm9.85-3.69a4.3,4.3,0,0,0,.66-2.32A4.56,4.56,0,0,0,15,10.81a4.49,4.49,0,0,0-3.24,1.32,4.38,4.38,0,0,0-1.35,3.23,4.3,4.3,0,0,0,.68,2.32H10a5.13,5.13,0,0,1-.52-2.32,5.29,5.29,0,0,1,.43-2.12,5.4,5.4,0,0,1,1.18-1.75,5.54,5.54,0,0,1,1.77-1.18A5.37,5.37,0,0,1,15,9.88a5.22,5.22,0,0,1,2.12.43,5.35,5.35,0,0,1,2.93,2.93,5.26,5.26,0,0,1,.44,2.12A4.73,4.73,0,0,1,20,17.68Zm5-1.81a.4.4,0,0,1-.31-.13.64.64,0,0,1-.12-.38.49.49,0,0,1,.13-.35.39.39,0,0,1,.3-.13h2.35a.45.45,0,0,1,.34.14.49.49,0,0,1,.14.34.55.55,0,0,1-.15.37.43.43,0,0,1-.33.14Zm-20.17,0a.5.5,0,0,1-.35-.15.53.53,0,0,1-.15-.36A.51.51,0,0,1,3.41,15a.64.64,0,0,1,.34-.13H6.08a.4.4,0,0,1,.31.13.49.49,0,0,1,.13.35.55.55,0,0,1-.13.38.42.42,0,0,1-.31.13ZM21.3,9.52A.34.34,0,0,1,21,9.41.54.54,0,0,1,20.88,9,.53.53,0,0,1,21,8.68l1.6-1.63A.46.46,0,0,1,23,6.91.43.43,0,0,1,23.3,7a.47.47,0,0,1,.14.35.59.59,0,0,1-.14.41L21.65,9.37A.5.5,0,0,1,21.3,9.52Zm-12.58,0a.58.58,0,0,1-.37-.17L6.69,7.75a.65.65,0,0,1-.11-.37A.49.49,0,0,1,6.7,7a.55.55,0,0,1,.35-.14A.49.49,0,0,1,7.38,7L9,8.69A.54.54,0,0,1,9.15,9,.5.5,0,0,1,9,9.38.43.43,0,0,1,8.72,9.51ZM15,6.9a.48.48,0,0,1-.36-.13.5.5,0,0,1-.13-.37V4.1a.48.48,0,0,1,.13-.36A.51.51,0,0,1,15,3.61a.48.48,0,0,1,.35.13.49.49,0,0,1,.13.37v2.3a.48.48,0,0,1-.13.36A.52.52,0,0,1,15,6.9Z" transform="translate(-3.25 -3.61)"/></svg>