<svg id="Layer_1" data-name="Layer 1" xmlns="http://www.w3.org/2000/svg" viewBox="0 0 23.25 20.32"><path d="M11.92,21.36H9.12a.45.45,0,0,1-.34-.14.43.43,0,0,1-.14-.33.46.46,0,0,1,.48-.46h3.22L15,22.92l2.73-2.55,3.25.05a.46.46,0,0,1,.48.46.48.48,0,0,1-.48.48H18.08L15,24.17Zm-1.87-3.61a5.44,5.44,0,0,1,0-4.38,5.69,5.69,0,0,1,1.16-1.75,5.76,5.76,0,0,1,1.74-1.16A5.26,5.26,0,0,1,15,10a5.13,5.13,0,0,1,2.1.43,5.76,5.76,0,0,1,1.74,1.16A5.57,5.57,0,0,1,20,13.37a5.22,5.22,0,0,1,.43,2.09A5.06,5.06,0,0,1,20,17.74h-1a4.44,4.44,0,0,0-.71-5.43,4.55,4.55,0,0,0-6.38,0,4.29,4.29,0,0,0-1.33,3.17,4.5,4.5,0,0,0,.61,2.28ZM23.83,16a.39.39,0,0,1-.3-.13.52.52,0,0,1-.13-.37.46.46,0,0,1,.12-.33.39.39,0,0,1,.31-.11h2.32a.49.49,0,0,1,.35.13.4.4,0,0,1,.13.31.49.49,0,0,1-.15.35.41.41,0,0,1-.33.15Zm-20,0a.43.43,0,0,1-.33-.14.5.5,0,0,1-.16-.36.4.4,0,0,1,.13-.31A.41.41,0,0,1,3.86,15H6.17a.44.44,0,0,1,.32.12.46.46,0,0,1,.11.32.52.52,0,0,1-.13.37.39.39,0,0,1-.3.13ZM21.23,9.71a.41.41,0,0,1-.3-.12.51.51,0,0,1-.12-.35.41.41,0,0,1,.1-.31l1.64-1.64a.37.37,0,0,1,.33-.15.42.42,0,0,1,.32.13.49.49,0,0,1,.13.35.47.47,0,0,1-.1.33L21.57,9.57A.51.51,0,0,1,21.23,9.71Zm-12.46,0s-.15,0-.37-.17L6.78,7.93a.44.44,0,0,1-.11-.32.47.47,0,0,1,.1-.33.49.49,0,0,1,.35-.15.35.35,0,0,1,.3.12L9.07,8.91a.53.53,0,0,1,.19.32c0,.08-.06.2-.19.33A.38.38,0,0,1,8.77,9.69ZM15,7.13A.45.45,0,0,1,14.68,7a.43.43,0,0,1-.14-.33V4.33a.48.48,0,1,1,1,0V6.65a.48.48,0,0,1-.48.48Z" transform="translate(-3.38 -3.85)"/></svg>