<svg id="Layer_1" data-name="Layer 1" xmlns="http://www.w3.org/2000/svg" viewBox="0 0 19.72 19.15"><path d="M13.59,27.08a.39.39,0,0,1-.23-.13.27.27,0,0,1-.07-.17s0-.08,0-.19l.25-.95a.39.39,0,0,1,.19-.23.25.25,0,0,1,.14,0H14a.36.36,0,0,1,.23.18.27.27,0,0,1,0,.24L14,26.85c-.05.15-.11.18-.14.19l-.16.06Zm-3.13-4H8.17l.67-1.72-.51-.16A4.44,4.44,0,0,1,6,19.58a4.45,4.45,0,0,1,.06-5.42,4.26,4.26,0,0,1,2.45-1.55l.31-.07.07-.31a5.25,5.25,0,0,1,1.92-3.08A5.39,5.39,0,0,1,14.28,8a5.45,5.45,0,0,1,5.3,4.15l.1.38h.71a4.45,4.45,0,0,1,3.86,2.21,4.35,4.35,0,0,1,.6,2.24A4.47,4.47,0,0,1,22.23,21a4.38,4.38,0,0,1-1.35.37v-.74a3.73,3.73,0,0,0,2.25-1.16,3.68,3.68,0,0,0-.08-5.19,3.7,3.7,0,0,0-2.67-1.09H19.05l0-.31a4.82,4.82,0,0,0-4.75-4.27,4.58,4.58,0,0,0-3.18,1.23,4.53,4.53,0,0,0-1.53,3l0,.27-.33,0a3.85,3.85,0,0,0-2.4,1.22,3.72,3.72,0,0,0-.16,4.82,3.7,3.7,0,0,0,2,1.33l.43.11,1.18-3.1h2.18L9.88,22.42h2.29l-2.4,3.15ZM17.7,24a.35.35,0,0,1-.17-.13.49.49,0,0,1-.08-.24l.28-1.1a.31.31,0,0,1,.15-.23.39.39,0,0,1,.17,0l.13,0a.3.3,0,0,1,.18.16.36.36,0,0,1,0,.29l-.25,1C18.08,24,18,24,18,24a.33.33,0,0,1-.18.05ZM15,22.31a.3.3,0,0,1-.12,0,.28.28,0,0,1-.18-.13.27.27,0,0,1-.07-.16l0-.21.23-1a.32.32,0,0,1,.17-.2.34.34,0,0,1,.16,0h.11a.39.39,0,0,1,.23.19.33.33,0,0,1,0,.24l-.3,1a.31.31,0,0,1-.16.22A.28.28,0,0,1,15,22.31Zm4.21-3h0a.7.7,0,0,1-.3-.21c-.07-.1-.06-.14-.06-.16s0-.11,0-.15l.26-1a.29.29,0,0,1,.11-.18.55.55,0,0,1,.19-.08l.18,0a.41.41,0,0,1,.18.12.36.36,0,0,1,.07.21l0,.15-.28,1c-.07.21-.15.24-.18.26A.3.3,0,0,1,19.21,19.27Z" transform="translate(-5.13 -7.95)"/></svg>