<svg id="Layer_1" data-name="Layer 1" xmlns="http://www.w3.org/2000/svg" viewBox="0 0 22.8 11.75"><path d="M18.69,21.2a2.23,2.23,0,0,1-1.61-.69.32.32,0,0,1-.13-.27.36.36,0,0,1,.11-.25.42.42,0,0,1,.3-.12.29.29,0,0,1,.23.09,1.49,1.49,0,0,0,1.1.46A1.52,1.52,0,0,0,19.78,20a1.46,1.46,0,0,0,.45-1.08,1.48,1.48,0,0,0-.45-1.09,1.46,1.46,0,0,0-1.08-.45H4a.29.29,0,0,1-.25-.1A.38.38,0,0,1,3.6,17a.35.35,0,0,1,.11-.27.42.42,0,0,1,.3-.12H18.69A2.36,2.36,0,0,1,21,18.92a2.09,2.09,0,0,1-.68,1.61A2.29,2.29,0,0,1,18.69,21.2ZM4,14.06a.34.34,0,0,1-.27-.1c-.12-.13-.14-.2-.14-.27A.39.39,0,0,1,4,13.28h20a1.47,1.47,0,0,0,1.07-.43,1.53,1.53,0,0,0-1.07-2.61,1.39,1.39,0,0,0-1.07.47.42.42,0,0,1-.26.08.41.41,0,0,1-.29-.1.34.34,0,0,1-.1-.27.37.37,0,0,1,.1-.3,2.18,2.18,0,0,1,1.62-.67,2.24,2.24,0,0,1,1.66.69,2.19,2.19,0,0,1,.69,1.63,2.11,2.11,0,0,1-.69,1.61,2.25,2.25,0,0,1-1.66.68Z" transform="translate(-3.6 -9.45)"/></svg>